<svg width="148" height="48" viewBox="0 0 148 48" fill="none" xmlns="http://www.w3.org/2000/svg">
<path d="M40.8663 48H33.1863V34.56H8.22625V48H0.54625V7.68C0.54625 5.824 1.18625 4.256 2.46625 2.976C3.81025 1.632 5.41025 0.959999 7.26625 0.959999H40.8663V48ZM33.1863 27.84V7.68H8.22625V33.6L13.9863 27.84H33.1863ZM98.4288 47.904H84.9888L66.7488 8.064H62.9088L65.7888 12.864V47.904H58.1088V0.863997H71.6448L89.7888 40.704H93.6288L90.7488 35.904V0.863997H98.4288V47.904ZM147.351 41.28C147.351 43.136 146.679 44.736 145.335 46.08C144.055 47.36 142.487 48 140.631 48H113.751V41.28H139.671V27.84H120.471C118.615 27.84 117.015 27.2 115.671 25.92C114.391 24.576 113.751 22.976 113.751 21.12V7.68C113.751 5.824 114.391 4.256 115.671 2.976C117.015 1.632 118.615 0.959999 120.471 0.959999H147.351V7.68H121.431V21.12H140.631C142.487 21.12 144.055 21.792 145.335 23.136C146.679 24.416 147.351 25.984 147.351 27.84V41.28Z" fill="white"/>
</svg>
