<svg width="99" height="32" viewBox="0 0 99 32" fill="none" xmlns="http://www.w3.org/2000/svg">
<path d="M27.64 32H22.52V23.04H5.88V32H0.76V5.12C0.76 3.88266 1.18667 2.83733 2.04 1.984C2.936 1.088 4.00267 0.639999 5.24 0.639999H27.64V32ZM22.52 18.56V5.12H5.88V22.4L9.72 18.56H22.52ZM66.015 31.936H57.055L44.895 5.376H42.335L44.255 8.576V31.936H39.135V0.575998H48.159L60.255 27.136H62.815L60.895 23.936V0.575998H66.015V31.936ZM98.63 27.52C98.63 28.7573 98.182 29.824 97.286 30.72C96.4327 31.5733 95.3873 32 94.15 32H76.23V27.52H93.51V18.56H80.71C79.4727 18.56 78.406 18.1333 77.51 17.28C76.6567 16.384 76.23 15.3173 76.23 14.08V5.12C76.23 3.88266 76.6567 2.83733 77.51 1.984C78.406 1.088 79.4727 0.639999 80.71 0.639999H98.63V5.12H81.35V14.08H94.15C95.3873 14.08 96.4327 14.528 97.286 15.424C98.182 16.2773 98.63 17.3227 98.63 18.56V27.52Z" fill="white"/>
</svg>
