<svg width="22" height="22" viewBox="0 0 22 22" fill="none" xmlns="http://www.w3.org/2000/svg">
<path d="M16.2145 1.0625H5.77633C2.89391 1.0625 0.557251 3.30203 0.557251 6.06462V16.0689C0.557251 18.8315 2.89391 21.071 5.77633 21.071H16.2145C19.0969 21.071 21.4335 18.8315 21.4335 16.0689V6.06462C21.4335 3.30203 19.0969 1.0625 16.2145 1.0625Z" stroke="white" stroke-linecap="round" stroke-linejoin="round"/>
<path d="M15.1706 10.4372C15.2994 11.2698 15.151 12.1201 14.7466 12.8672C14.3421 13.6143 13.7021 14.2202 12.9177 14.5986C12.1332 14.977 11.2442 15.1088 10.3772 14.975C9.51012 14.8413 8.70913 14.449 8.08814 13.8538C7.46716 13.2586 7.05779 12.4909 6.91827 11.6599C6.77875 10.8289 6.91618 9.97688 7.31101 9.22504C7.70585 8.4732 8.33798 7.85983 9.1175 7.47216C9.89702 7.0845 10.7842 6.94229 11.6529 7.06575C12.5391 7.19169 13.3594 7.58743 13.9929 8.19453C14.6263 8.80164 15.0392 9.5879 15.1706 10.4372Z" stroke="white" stroke-linecap="round" stroke-linejoin="round"/>
<path d="M16.7363 5.56445H16.7463" stroke="white" stroke-linecap="round" stroke-linejoin="round"/>
</svg>
