<svg width="16" height="18" viewBox="0 0 16 18" fill="none" xmlns="http://www.w3.org/2000/svg">
<path d="M14.7133 7.60725C14.7133 12.665 7.9639 17.0001 7.9639 17.0001C7.9639 17.0001 1.21454 12.665 1.21454 7.60725C1.21454 5.88261 1.92563 4.22861 3.19138 3.00911C4.45713 1.7896 6.17386 1.10449 7.9639 1.10449C9.75394 1.10449 11.4707 1.7896 12.7364 3.00911C14.0022 4.22861 14.7133 5.88261 14.7133 7.60725Z" stroke="white" stroke-linecap="round" stroke-linejoin="round"/>
<path d="M7.96414 9.77463C9.20667 9.77463 10.2139 8.80416 10.2139 7.60704C10.2139 6.40991 9.20667 5.43945 7.96414 5.43945C6.72162 5.43945 5.71436 6.40991 5.71436 7.60704C5.71436 8.80416 6.72162 9.77463 7.96414 9.77463Z" stroke="white" stroke-linecap="round" stroke-linejoin="round"/>
</svg>
