<svg width="16" height="15" viewBox="0 0 16 15" fill="none" xmlns="http://www.w3.org/2000/svg">
<path d="M9.55968 3.57364C10.1897 3.69206 10.7687 3.98892 11.2225 4.42621C11.6764 4.8635 11.9845 5.42134 12.1074 6.02832L9.55968 3.57364ZM9.55968 1.08789C10.8686 1.22799 12.0891 1.79271 13.0209 2.68934C13.9527 3.58597 14.5404 4.76121 14.6875 6.0221L9.55968 1.08789ZM14.0425 10.9812V12.8455C14.0432 13.0186 14.0064 13.1899 13.9344 13.3484C13.8625 13.507 13.7569 13.6494 13.6245 13.7664C13.4922 13.8834 13.3359 13.9725 13.1657 14.0279C12.9956 14.0833 12.8153 14.1039 12.6363 14.0884C10.6516 13.8806 8.74504 13.2271 7.06996 12.1805C5.51152 11.2264 4.19023 9.95342 3.19994 8.45192C2.10987 6.83072 1.43149 4.98492 1.21977 3.06406C1.20366 2.89221 1.22485 2.71901 1.28202 2.55549C1.33918 2.39197 1.43106 2.24171 1.5518 2.11427C1.67254 1.98683 1.8195 1.88501 1.98332 1.8153C2.14715 1.74558 2.32424 1.70949 2.50333 1.70933H4.43834C4.75137 1.70636 5.05483 1.81316 5.29218 2.00981C5.52952 2.20647 5.68454 2.47957 5.72835 2.7782C5.81002 3.37482 5.96149 3.96063 6.17986 4.52444C6.26664 4.74687 6.28542 4.9886 6.23398 5.221C6.18253 5.45339 6.06302 5.66671 5.8896 5.83567L5.07045 6.6249C5.98865 8.1807 7.32568 9.46887 8.94047 10.3535L9.75963 9.5643C9.935 9.39722 10.1564 9.28207 10.3976 9.23251C10.6388 9.18294 10.8897 9.20104 11.1206 9.28465C11.7058 9.49504 12.3138 9.64097 12.933 9.71966C13.2464 9.76224 13.5325 9.91429 13.7371 10.1469C13.9416 10.3795 14.0503 10.6764 14.0425 10.9812Z" stroke="white" stroke-linecap="round" stroke-linejoin="round"/>
</svg>
