<svg width="22" height="21" viewBox="0 0 22 21" fill="none" xmlns="http://www.w3.org/2000/svg">
<g clip-path="url(#clip0_178_21)">
<path d="M18.6641 13.4579L18.4573 13.134C18.0529 12.501 17.5636 11.9206 17.0028 11.4088L16.3111 10.7776C16.2454 10.7175 16.2355 10.6223 16.2877 10.551L17.2322 9.26109C17.3684 9.07508 17.4941 8.87917 17.6058 8.67885L18.4129 7.23148C18.5535 6.97926 18.546 6.68215 18.3927 6.43673C18.2395 6.19135 17.9698 6.04461 17.6714 6.0443L15.9244 6.04238C15.924 6.04238 15.9237 6.04238 15.9234 6.04238C15.5574 6.04238 15.2259 6.24985 15.0788 6.57108L14.8938 6.97516C14.4217 8.00611 13.7773 8.94611 12.9779 9.77029V6.82033C12.9779 6.39116 12.6136 6.04199 12.1659 6.04199H9.69166C9.28539 6.04199 8.95491 6.35877 8.95491 6.74815C8.95491 6.89685 9.00274 7.03929 9.09318 7.15997L9.2663 7.39112C9.43605 7.61766 9.52575 7.88484 9.52575 8.16379V10.3194C9.22064 9.97972 8.84914 9.51851 8.53465 8.98824C8.05307 8.17618 7.70788 7.22925 7.54499 6.73705C7.40737 6.32133 7.00926 6.04199 6.55426 6.04199H4.78491C4.53521 6.04199 4.30557 6.15141 4.15471 6.3422C4.00397 6.53302 3.9563 6.77461 4.02403 7.00506L4.35409 8.1278C4.55637 8.81602 4.83445 9.48599 5.18058 10.1192C5.28505 10.3103 5.5314 10.3841 5.73095 10.2839C5.93046 10.1838 6.0074 9.94759 5.90289 9.75642C5.58302 9.17121 5.32602 8.55196 5.13903 7.91587L4.81794 6.82357H6.5543C6.65228 6.82357 6.73803 6.88376 6.76767 6.97336C6.94027 7.4948 7.30723 8.50018 7.82576 9.37442C8.25119 10.0918 8.76735 10.6894 9.12551 11.0644C9.32172 11.2698 9.62361 11.3374 9.89459 11.2365C10.1659 11.1354 10.3412 10.8899 10.3412 10.611V8.16379C10.3412 7.72028 10.1986 7.29545 9.92876 6.93526L9.84505 6.82357H12.1624V9.95752C12.1624 10.1868 12.2826 10.3976 12.4838 10.5216C12.685 10.6456 12.9349 10.6627 13.1526 10.5675L13.3207 10.494C13.3982 10.4601 13.467 10.4129 13.5253 10.3535C14.4102 9.45289 15.1219 8.42191 15.6406 7.2892L15.8256 6.88512C15.8426 6.84792 15.881 6.82393 15.9234 6.82393H15.9235L17.6704 6.82584C17.6764 6.82584 17.6854 6.82588 17.6931 6.83815C17.7008 6.85046 17.6965 6.85804 17.6937 6.86308L16.8866 8.31042C16.7904 8.48303 16.682 8.65181 16.5647 8.81211L15.6202 10.102C15.3343 10.4925 15.3884 11.0146 15.7488 11.3436L16.4405 11.9749C16.9499 12.4398 17.3945 12.9671 17.7618 13.5421L17.9687 13.866C17.9737 13.8738 17.9888 13.8975 17.97 13.9298C17.9511 13.962 17.9221 13.962 17.9126 13.962H16.4044C16.2106 13.962 16.022 13.8856 15.8869 13.7525L14.3788 12.2663C14.0234 11.9161 13.5724 11.6756 13.0746 11.5708C12.8514 11.5238 12.621 11.5756 12.4428 11.713C12.2647 11.8503 12.1625 12.0547 12.1625 12.2739V13.7341C12.1625 13.8598 12.0558 13.962 11.9246 13.962C10.756 13.962 9.60114 13.5873 8.67284 12.9068C8.29886 12.6326 7.94217 12.3303 7.61267 12.0082C7.45504 11.8541 7.1969 11.8516 7.03605 12.0027C6.87523 12.1538 6.87271 12.4013 7.03034 12.5554C7.38682 12.9039 7.77275 13.231 8.17739 13.5276C9.2471 14.3117 10.5779 14.7436 11.9246 14.7436C12.5054 14.7436 12.9779 14.2907 12.9779 13.7341V12.3525C13.2884 12.4319 13.5692 12.5895 13.7942 12.8113L15.3023 14.2974C15.59 14.581 15.9917 14.7436 16.4044 14.7436H17.9126C18.2312 14.7436 18.5258 14.5782 18.6814 14.3118C18.8371 14.0455 18.8305 13.7183 18.6641 13.4579Z" fill="white"/>
<path d="M6.64603 10.9093L6.64151 10.9033C6.51038 10.728 6.25595 10.6877 6.07309 10.8134C5.89027 10.9392 5.84831 11.1832 5.9794 11.3585C5.97956 11.3588 5.98201 11.362 5.98217 11.3623L6.31498 11.137L5.98392 11.3646C6.06348 11.471 6.18849 11.5276 6.31534 11.5276C6.39747 11.5276 6.48044 11.5038 6.55234 11.4544C6.73516 11.3287 6.77712 11.0847 6.64603 10.9093Z" fill="white"/>
<path d="M9.28917 17.4141H5.96609C5.74094 17.4141 5.55835 17.5889 5.55835 17.8047C5.55835 18.0204 5.74094 18.1953 5.96609 18.1953H9.28917C9.51437 18.1953 9.69691 18.0204 9.69691 17.8047C9.69691 17.5889 9.51433 17.4141 9.28917 17.4141Z" fill="white"/>
<path d="M11.144 17.4141H11.1392C10.9142 17.4141 10.7318 17.5889 10.7318 17.8047C10.7318 18.0204 10.9142 18.1953 11.1392 18.1953H11.144C11.369 18.1953 11.5514 18.0204 11.5514 17.8047C11.5514 17.5889 11.369 17.4141 11.144 17.4141Z" fill="white"/>
<path d="M19.1212 0.0625H3.62712C2.14323 0.0625 0.936035 1.21951 0.936035 2.64172V17.4918C0.936035 18.914 2.14323 20.071 3.62712 20.071H19.1212C20.6051 20.071 21.8123 18.914 21.8123 17.4918V2.64172C21.8123 1.21951 20.6051 0.0625 19.1212 0.0625ZM20.9969 17.4918C20.9969 18.483 20.1554 19.2894 19.1212 19.2894H3.62712C2.59293 19.2894 1.75152 18.483 1.75152 17.4918V2.64172C1.75152 1.65052 2.59293 0.844081 3.62712 0.844081H19.1212C20.1554 0.844081 20.9969 1.65052 20.9969 2.64172V17.4918Z" fill="white"/>
</g>
<defs>
<clipPath id="clip0_178_21">
<rect width="20.8763" height="20.0085" fill="white" transform="translate(0.936035 0.0625)"/>
</clipPath>
</defs>
</svg>
