<svg width="32" height="22" viewBox="0 0 32 22" fill="none" xmlns="http://www.w3.org/2000/svg">
<path d="M30.2655 4.19449C30.1051 3.58027 29.7784 3.0175 29.3185 2.56302C28.8585 2.10853 28.2815 1.77844 27.6459 1.60607C25.3233 1.0625 16.0329 1.0625 16.0329 1.0625C16.0329 1.0625 6.74253 1.0625 4.41994 1.65784C3.78426 1.83021 3.2073 2.1603 2.74733 2.61478C2.28737 3.06927 1.96068 3.63204 1.80027 4.24626C1.37521 6.50537 1.16728 8.7971 1.17912 11.0926C1.16396 13.4054 1.3719 15.7146 1.80027 17.9908C1.97711 18.5859 2.31112 19.1273 2.77002 19.5626C3.22891 19.9978 3.79719 20.3123 4.41994 20.4757C6.74253 21.071 16.0329 21.071 16.0329 21.071C16.0329 21.071 25.3233 21.071 27.6459 20.4757C28.2815 20.3033 28.8585 19.9732 29.3185 19.5187C29.7784 19.0642 30.1051 18.5015 30.2655 17.8872C30.6873 15.6451 30.8952 13.3709 30.8867 11.0926C30.9018 8.77982 30.6939 6.47061 30.2655 4.19449V4.19449Z" stroke="white" stroke-linecap="round" stroke-linejoin="round"/>
<path d="M12.9946 15.3333L20.7591 11.1012L12.9946 6.86914V15.3333Z" stroke="white" stroke-linecap="round" stroke-linejoin="round"/>
</svg>
